<svg width="201" height="82" viewBox="0 0 201 82" fill="none" xmlns="http://www.w3.org/2000/svg">
<g clip-path="url(#clip0_432_53)">
<path d="M0 1V61C0 61.2652 0.105357 61.5196 0.292893 61.7071C0.48043 61.8946 0.734784 62 1 62H49C49.2652 62 49.5196 61.8946 49.7071 61.7071C49.8946 61.5196 50 61.2652 50 61V1C50 0.734784 49.8946 0.48043 49.7071 0.292893C49.5196 0.105357 49.2652 0 49 0L1 0C0.734784 0 0.48043 0.105357 0.292893 0.292893C0.105357 0.48043 0 0.734784 0 1ZM47 60H3C2.73478 60 2.48043 59.8946 2.29289 59.7071C2.10536 59.5196 2 59.2652 2 59V3C2 2.73478 2.10536 2.48043 2.29289 2.29289C2.48043 2.10536 2.73478 2 3 2H47C47.2652 2 47.5196 2.10536 47.7071 2.29289C47.8946 2.48043 48 2.73478 48 3V59C48 59.2652 47.8946 59.5196 47.7071 59.7071C47.5196 59.8946 47.2652 60 47 60Z" fill="black"/>
<path d="M42.7999 17.4H27.7999C27.5347 17.4 27.2803 17.5053 27.0928 17.6929C26.9052 17.8804 26.7999 18.1347 26.7999 18.4C26.7999 18.6652 26.9052 18.9195 27.0928 19.1071C27.2803 19.2946 27.5347 19.4 27.7999 19.4H42.7999C43.0651 19.4 43.3195 19.2946 43.507 19.1071C43.6945 18.9195 43.7999 18.6652 43.7999 18.4C43.7999 18.1347 43.6945 17.8804 43.507 17.6929C43.3195 17.5053 43.0651 17.4 42.7999 17.4ZM42.7999 12.4H27.7999C27.5347 12.4 27.2803 12.5053 27.0928 12.6929C26.9052 12.8804 26.7999 13.1347 26.7999 13.4C26.7999 13.6652 26.9052 13.9195 27.0928 14.1071C27.2803 14.2946 27.5347 14.4 27.7999 14.4H42.7999C43.0651 14.4 43.3195 14.2946 43.507 14.1071C43.6945 13.9195 43.7999 13.6652 43.7999 13.4C43.7999 13.1347 43.6945 12.8804 43.507 12.6929C43.3195 12.5053 43.0651 12.4 42.7999 12.4ZM38.8999 7.39996H27.7999C27.5347 7.39996 27.2803 7.50532 27.0928 7.69286C26.9052 7.88039 26.7999 8.13475 26.7999 8.39996C26.7999 8.66518 26.9052 8.91953 27.0928 9.10707C27.2803 9.29461 27.5347 9.39996 27.7999 9.39996H38.7999C39.0651 9.39996 39.3195 9.29461 39.507 9.10707C39.6945 8.91953 39.7999 8.66518 39.7999 8.39996C39.7999 8.13475 39.6945 7.88039 39.507 7.69286C39.3195 7.50532 39.0651 7.39996 38.7999 7.39996H38.8999ZM18.5999 14.3C19.0994 13.8932 19.5137 13.3919 19.8193 12.8248C20.1248 12.2577 20.3156 11.636 20.3806 10.9951C20.4456 10.3542 20.3836 9.70683 20.1982 9.08994C20.0127 8.47304 19.7075 7.89876 19.2999 7.39996C18.8893 6.79079 18.3496 6.27956 17.719 5.90265C17.0885 5.52573 16.3827 5.29239 15.6517 5.21921C14.9208 5.14603 14.1827 5.23481 13.4899 5.47925C12.7972 5.72368 12.1668 6.11776 11.6436 6.63346C11.1204 7.14915 10.7173 7.77379 10.463 8.46295C10.2086 9.15211 10.1092 9.88886 10.1718 10.6208C10.2345 11.3527 10.4577 12.0619 10.8255 12.6977C11.1933 13.3336 11.6967 13.8807 12.2999 14.3C11.3395 14.7918 10.5059 15.4991 9.86401 16.3664C9.22217 17.2338 8.78953 18.2378 8.59988 19.3C8.59988 19.5652 8.70524 19.8195 8.89277 20.0071C9.08031 20.1946 9.33467 20.3 9.59988 20.3C9.82046 20.3101 10.0382 20.2469 10.2191 20.1202C10.4 19.9936 10.5339 19.8107 10.5999 19.6C10.8294 18.4697 11.4426 17.4535 12.3356 16.7236C13.2286 15.9937 14.3465 15.595 15.4999 15.595C16.6532 15.595 17.7711 15.9937 18.6641 16.7236C19.5572 17.4535 20.1704 18.4697 20.3999 19.6C20.4466 19.8292 20.5723 20.0349 20.755 20.181C20.9377 20.3272 21.1659 20.4047 21.3999 20.4C21.5401 20.4007 21.6788 20.3719 21.8072 20.3155C21.9355 20.2591 22.0505 20.1764 22.1448 20.0726C22.2391 19.9689 22.3106 19.8465 22.3545 19.7134C22.3984 19.5803 22.4139 19.4394 22.3999 19.3C22.1996 18.2282 21.7518 17.218 21.0921 16.3499C20.4323 15.4818 19.5789 14.7799 18.5999 14.3ZM15.9999 13.4C15.5939 13.5549 15.1591 13.6198 14.7256 13.5901C14.2921 13.5605 13.8702 13.437 13.4891 13.2283C13.108 13.0195 12.7767 12.7305 12.5183 12.3811C12.2599 12.0318 12.0805 11.6305 11.9925 11.2049C11.9044 10.7794 11.9099 10.3399 12.0084 9.91665C12.107 9.49344 12.2963 9.0967 12.5633 8.75386C12.8303 8.41102 13.1686 8.13028 13.5547 7.93104C13.9409 7.73181 14.3658 7.61885 14.7999 7.59996C15.5117 7.569 16.2114 7.79241 16.7735 8.2302C17.3357 8.66799 17.7237 9.29157 17.868 9.98931C18.0124 10.6871 17.9037 11.4134 17.5614 12.0383C17.2191 12.6632 16.6656 13.1459 15.9999 13.4ZM17.2999 25.1L37.4999 24.9C37.9296 24.894 38.3472 25.0419 38.6774 25.317C39.0075 25.5921 39.2283 25.9762 39.2999 26.4C39.3999 26.9 39.2999 27.4 38.9999 27.8L28.4999 43.5H37.4999C37.8438 43.5078 38.1783 43.6141 38.4637 43.8062C38.7491 43.9983 38.9735 44.2681 39.1103 44.5838C39.2471 44.8995 39.2905 45.2477 39.2355 45.5873C39.1805 45.9269 39.0293 46.2436 38.7999 46.5L10.6999 80.7C10.4331 81.0225 10.0623 81.2419 9.65117 81.3206C9.24008 81.3992 8.81443 81.3321 8.44744 81.1309C8.08045 80.9296 7.79507 80.6068 7.64038 80.2179C7.4857 79.829 7.47137 79.3983 7.59988 79L17.2999 54.7L9.99988 54.6H9.39988C9.15846 54.5428 8.93146 54.4364 8.73312 54.2874C8.53478 54.1384 8.36938 53.95 8.24731 53.734C8.12524 53.5181 8.04913 53.2792 8.02376 53.0324C7.99839 52.7856 8.0243 52.5363 8.09988 52.3L15.4999 26.5C15.6114 26.1132 15.8493 25.775 16.1756 25.5394C16.5018 25.3037 16.8977 25.1842 17.2999 25.2V25.1Z" fill="black"/>
<path fill-rule="evenodd" clip-rule="evenodd" d="M37.5 26.8L17.3 26.9L9.90005 52.7001H19.9L9.30005 79.7L37.4001 45.4001H25.1L37.5 26.9V26.8Z" fill="#FCDB33"/>
<path fill-rule="evenodd" clip-rule="evenodd" d="M23 27L17.4 27.1L10.4 52.5L20 52.8L9.30005 79.6L23.7 50.2L15.1 48.7L23 27Z" fill="#FFFF00"/>
<path d="M86.1 28.1999H86.3C87.5133 27.6556 88.5269 26.7468 89.2 25.5999C89.9 24.4999 90.2 23.0999 90.2 21.7999C90.2 20.3999 89.8 18.9999 89.2 17.7999C88.5 16.6999 87.5 15.7999 86.4 15.1999C85 14.5999 83.4 14.1999 82 14.2999H73V37.0999H77.8V29.0999H81.3L85.6 37.0999H91L86 28.1999H86.1ZM84.7 23.5999C84.4 24.0999 83.9 24.5999 83.4 24.7999C82.6 24.9999 81.9 25.1999 81.1 25.0999H77.8V18.1999H81.1C81.8 18.1999 82.6 18.3999 83.4 18.6999C83.9 18.8999 84.4 19.2999 84.7 19.7999C85 20.3999 85.2 21.0999 85.2 21.7999C85.2 22.3999 85.1 23.0999 84.7 23.5999ZM109 33.0999V37.0999H93.4V14.2999H109V18.2999H98.4V23.6999H108.1V27.6999H98.4V32.9999H108.9L109 33.0999ZM152 14.2999V29.0999C152.067 30.6148 151.685 32.1156 150.902 33.4143C150.119 34.7129 148.971 35.7516 147.6 36.3999C146.026 37.1002 144.323 37.462 142.6 37.462C140.877 37.462 139.174 37.1002 137.6 36.3999C136.275 35.7176 135.166 34.6785 134.4 33.3999C133.6 32.1095 133.184 30.6181 133.2 29.0999V14.2999H138V28.6999C138 29.4999 138.2 30.2999 138.6 30.9999C139 31.6999 139.6 32.1999 140.2 32.5999C140.959 32.9863 141.798 33.1877 142.65 33.1877C143.502 33.1877 144.341 32.9863 145.1 32.5999C145.8 32.1999 146.3 31.5999 146.7 30.9999C147.1 30.2999 147.3 29.4999 147.3 28.6999V14.2999H152.1H152ZM130 30.5999C130 31.8999 129.6 33.0999 129 34.1999C128.2 35.1999 127.1 36.0999 126 36.5999C124.4 37.1999 122.8 37.3999 121.2 37.3999C119.5 37.3999 117.9 37.0999 116.4 36.5999C115.096 36.0742 113.981 35.1682 113.2 33.9999C112.424 32.8095 112.008 31.4208 112 29.9999H116.7C116.7 30.5999 116.9 31.2999 117.3 31.7999C117.7 32.3999 118.3 32.7999 118.9 32.9999C119.602 33.2699 120.348 33.4056 121.1 33.3999C121.8 33.3999 122.6 33.2999 123.2 32.9999C123.8 32.7999 124.2 32.4999 124.6 31.9999C125 31.5999 125.2 30.9999 125.1 30.5999C125.1 30.0999 125 29.5999 124.7 29.2999L123.4 28.2999L121.3 27.6999L118.8 27.0999C117.1 26.7999 115.6 25.9999 114.3 24.8999C113.734 24.4041 113.287 23.7869 112.993 23.0943C112.698 22.4017 112.564 21.6516 112.6 20.8999C112.571 19.613 112.957 18.3509 113.7 17.2999C114.5 16.2999 115.6 15.3999 116.7 14.8999C118.2 14.2999 119.7 13.8999 121.2 13.9999C122.8 13.9999 124.2 14.2999 125.7 14.8999C126.892 15.3822 127.912 16.2127 128.625 17.283C129.339 18.3532 129.713 19.6137 129.7 20.8999H125.1C125.07 20.4825 124.946 20.0771 124.738 19.7137C124.531 19.3503 124.244 19.038 123.9 18.7999C123.1 18.1999 122.2 17.9999 121.2 17.9999C120.5 17.9999 119.8 18.0999 119.2 18.3999C118.7 18.4999 118.2 18.8999 118 19.2999C117.7 19.5999 117.5 20.0999 117.5 20.5999C117.5 20.9999 117.5 21.2999 117.8 21.5999C118 21.9999 118.3 22.1999 118.6 22.3999C118.9 22.6999 119.3 22.8999 119.7 22.9999L121.1 23.3999L123.1 23.8999C124.1 24.0999 125.1 24.3999 125.9 24.7999C126.7 25.0999 127.4 25.5999 128.1 26.0999C128.725 26.6667 129.219 27.363 129.547 28.1402C129.875 28.9174 130.03 29.7568 130 30.5999ZM180.7 14.2999V37.0999H176.1V22.2999H175.9L169.9 36.9999H166.8L160.9 22.1999H160.7V37.0999H156V14.2999H162L168.3 29.5999H168.5L174.8 14.2999H180.8H180.7ZM200 33.0999V37.0999H184.7V14.2999H200V18.2999H189.5V23.6999H199.2V27.6999H189.5V32.9999H200V33.0999ZM84.7 44.1999V54.9999H82.5V47.9999L79.6 54.9999H78.1L75.3 47.9999V54.9999H73V44.1999H75.8L78.8 51.4999H78.9L81.9 44.1999H84.7ZM94.2 44.1999H91.2L87.5 54.9999H90L90.8 52.5999H94.7L95.5 54.9999H97.9L94.2 44.1999ZM91.3 50.7999L92.7 46.6999H92.8L94.1 50.6999H91.4L91.3 50.7999ZM109.8 54.9999H107.1L104.1 50.5999L103.1 51.9999V54.9999H100.7V44.1999H103V48.9999H103.2L107 44.1999H109.8L105.8 49.0999L109.8 55.0999V54.9999ZM119.8 53.0999V55.0999H112.5V44.0999H119.8V45.9999H114.8V48.5999H119.4V50.4999H114.7V53.0999H119.7H119.8ZM129.3 50.7999H129.4C129.981 50.5568 130.471 50.137 130.8 49.5999C131.1 49.0999 131.2 48.3999 131.2 47.7999C131.2 47.0999 131.1 46.4999 130.8 45.8999C130.471 45.3629 129.981 44.943 129.4 44.6999C128.8 44.3999 128.1 44.1999 127.4 44.2999H123V54.9999H125.3V51.0999H126.9L128.9 54.8999H131.5L129.2 50.6999L129.3 50.7999ZM128.6 48.5999C128.5 48.8999 128.3 49.0999 128 49.1999L127 49.3999H125.4V45.9999H126.9C127.3 45.9999 127.6 45.9999 127.9 46.1999C128.3 46.1999 128.5 46.4999 128.7 46.6999L128.9 47.6999L128.7 48.4999L128.6 48.5999Z" fill="black"/>
<path d="M148.5 46.5999C148.1 45.7999 147.5 45.1999 146.7 44.6999C145.904 44.2681 145.005 44.0607 144.1 44.0999C143.2 44.0999 142.3 44.2999 141.5 44.6999C140.8 45.1999 140.1 45.7999 139.7 46.6999C139.262 47.6394 139.035 48.6634 139.035 49.6999C139.035 50.7365 139.262 51.7604 139.7 52.6999C140.132 53.4743 140.775 54.1107 141.553 54.5353C142.332 54.96 143.215 55.1558 144.1 55.0999C145.005 55.1391 145.904 54.9317 146.7 54.4999C147.5 54.0999 148.1 53.3999 148.5 52.5999C148.932 51.6586 149.155 50.6354 149.155 49.5999C149.155 48.5645 148.932 47.5412 148.5 46.5999ZM146.5 51.5999C146.3 52.0999 146 52.4999 145.5 52.7999C145.078 53.0559 144.594 53.1912 144.1 53.1912C143.606 53.1912 143.122 53.0559 142.7 52.7999C142.2 52.4999 141.9 52.0999 141.7 51.5999C141.242 50.3403 141.242 48.9595 141.7 47.6999C141.9 47.1999 142.2 46.6999 142.7 46.4999C143.02 46.2958 143.382 46.1644 143.758 46.1149C144.135 46.0654 144.518 46.099 144.88 46.2134C145.242 46.3278 145.575 46.5201 145.855 46.777C146.135 47.0338 146.355 47.3488 146.5 47.6999C147 48.8999 147 50.2999 146.5 51.5999ZM159.2 44.1999V50.9999H159.1L154.4 44.1999H152.4V54.9999H154.7V48.1999L159.5 54.9999H161.5V44.1999H159.2ZM167.1 53.0999V44.1999H164.8V54.9999H171.8V53.0999H167H167.1ZM174.8 44.1999V54.9999H177V44.1999H174.8ZM187.2 44.1999V50.9999H187.1L182.4 44.1999H180.4V54.9999H182.7V48.1999H182.8L187.5 54.9999H189.5V44.1999H187.2ZM195.1 53.0999V50.5999H199.7V48.5999H195.1V46.0999H200.1V44.1999H192.8V54.9999H200.1V53.0999H195.1Z" fill="#FCEE21"/>
</g>
<defs>
<clipPath id="clip0_432_53">
<rect width="201" height="82" fill="white"/>
</clipPath>
</defs>
</svg>
