<svg width="180" viewBox="0 0 201 82" xmlns="http://www.w3.org/2000/svg"><path d="M0 1v60a1 1 0 0 0 1 1h48a1 1 0 0 0 1-1V1a1 1 0 0 0-1-1H1a1 1 0 0 0-1 1Zm47 59H3a1 1 0 0 1-1-1V3a1 1 0 0 1 1-1h44a1 1 0 0 1 1 1v56a1 1 0 0 1-1 1Z" fill="#fff"/><path d="M42.8 17.4h-15a1 1 0 1 0 0 2h15a1 1 0 1 0 0-2zM42.8 12.4h-15a1 1 0 1 0 0 2h15a1 1 0 1 0 0-2zM38.9 7.4H27.8a1 1 0 1 0 0 2h11a1 1 0 1 0 0-2zM18.6 14.3a4.9 4.9 0 0 0 .7-6.9 5 5 0 1 0-7 6.9 7 7 0 0 0-3.7 5 1 1 0 0 0 1 1 1 1 0 0 0 1-.7 5 5 0 0 1 9.8 0 1 1 0 0 0 1 .8 1 1 0 0 0 1-1.1 7 7 0 0 0-3.8-5zm-2.6-.9a3 3 0 1 1-1.2-5.8 3 3 0 0 1 1.2 5.8zM17.3 25.1l20.2-.2a1.8 1.8 0 0 1 1.8 1.5c.1.5 0 1-.3 1.4L28.5 43.5h9a1.8 1.8 0 0 1 1.3 3L10.7 80.7A1.8 1.8 0 0 1 7.6 79l9.7-24.3-7.3-.1h-.6a1.8 1.8 0 0 1-1.3-2.3l7.4-25.8a1.8 1.8 0 0 1 1.8-1.3z" fill="#fff"/><path d="m37.5 26.8-20.2.1-7.4 25.8h10L9.3 79.7l28.1-34.3H25.1l12.4-18.5z" clip-rule="evenodd" fill="#FCDB33" fill-rule="evenodd"/><path d="m23 27-5.6.1-7 25.4 9.6.3L9.3 79.6l14.4-29.4-8.6-1.5L23 27z" clip-rule="evenodd" fill="#ff0" fill-rule="evenodd"/><path d="M86.1 28.2h.2a6.4 6.4 0 0 0 2.9-2.6c.7-1.1 1-2.5 1-3.8 0-1.4-.4-2.8-1-4-.7-1.1-1.7-2-2.8-2.6-1.4-.6-3-1-4.4-.9h-9v22.8h4.8v-8h3.5l4.3 8H91L86 28.2zm-1.4-4.6c-.3.5-.8 1-1.3 1.2-.8.2-1.5.4-2.3.3h-3.3v-6.9h3.3c.7 0 1.5.2 2.3.5.5.2 1 .6 1.3 1.1.3.6.5 1.3.5 2 0 .6-.1 1.3-.5 1.8zM109 33.1v4H93.4V14.3H109v4H98.4v5.4h9.7v4h-9.7V33h10.5zM152 14.3v14.8a7.7 7.7 0 0 1-4.4 7.3 12.3 12.3 0 0 1-10 0 8 8 0 0 1-3.2-3 8 8 0 0 1-1.2-4.3V14.3h4.8v14.4c0 .8.2 1.6.6 2.3.4.7 1 1.2 1.6 1.6a5.4 5.4 0 0 0 4.9 0c.7-.4 1.2-1 1.6-1.6.4-.7.6-1.5.6-2.3V14.3h4.8zM130 30.6c0 1.3-.4 2.5-1 3.6-.8 1-1.9 1.9-3 2.4-1.6.6-3.2.8-4.8.8-1.7 0-3.3-.3-4.8-.8a7 7 0 0 1-3.2-2.6 7.4 7.4 0 0 1-1.2-4h4.7c0 .6.2 1.3.6 1.8.4.6 1 1 1.6 1.2a6 6 0 0 0 2.2.4c.7 0 1.5-.1 2.1-.4.6-.2 1-.5 1.4-1 .4-.4.6-1 .5-1.4 0-.5-.1-1-.4-1.3l-1.3-1-2.1-.6-2.5-.6c-1.7-.3-3.2-1.1-4.5-2.2a5 5 0 0 1-1.7-4 6 6 0 0 1 1.1-3.6c.8-1 1.9-1.9 3-2.4 1.5-.6 3-1 4.5-.9 1.6 0 3 .3 4.5.9a6.4 6.4 0 0 1 4 6h-4.6a2.8 2.8 0 0 0-1.2-2.1c-.8-.6-1.7-.8-2.7-.8-.7 0-1.4.1-2 .4-.5.1-1 .5-1.2.9-.3.3-.5.8-.5 1.3 0 .4 0 .7.3 1 .2.4.5.6.8.8.3.3.7.5 1.1.6l1.4.4 2 .5c1 .2 2 .5 2.8.9.8.3 1.5.8 2.2 1.3a5.8 5.8 0 0 1 1.9 4.5zM180.7 14.3v22.8h-4.6V22.3h-.2l-6 14.7h-3.1l-5.9-14.8h-.2v14.9H156V14.3h6l6.3 15.3h.2l6.3-15.3h6zM200 33.1v4h-15.3V14.3H200v4h-10.5v5.4h9.7v4h-9.7V33H200zM84.7 44.2V55h-2.2v-7l-2.9 7h-1.5l-2.8-7v7H73V44.2h2.8l3 7.3h.1l3-7.3h2.8zM94.2 44.2h-3L87.5 55H90l.8-2.4h3.9l.8 2.4h2.4l-3.7-10.8zm-2.9 6.6 1.4-4.1h.1l1.3 4h-2.7zM109.8 55h-2.7l-3-4.4-1 1.4v3h-2.4V44.2h2.3V49h.2l3.8-4.8h2.8l-4 4.9 4 6zM119.8 53.1v2h-7.3V44.1h7.3v1.9h-5v2.6h4.6v1.9h-4.7v2.6h5zM129.3 50.8h.1a3 3 0 0 0 1.4-1.2c.3-.5.4-1.2.4-1.8 0-.7-.1-1.3-.4-1.9a3 3 0 0 0-1.4-1.2c-.6-.3-1.3-.5-2-.4H123V55h2.3v-3.9h1.6l2 3.8h2.6l-2.3-4.2zm-.7-2.2c-.1.3-.3.5-.6.6l-1 .2h-1.6V46h1.5c.4 0 .7 0 1 .2.4 0 .6.3.8.5l.2 1-.2.8z" fill="#fff"/><path d="M148.5 46.6c-.4-.8-1-1.4-1.8-1.9a5 5 0 0 0-2.6-.6c-.9 0-1.8.2-2.6.6-.7.5-1.4 1.1-1.8 2a7.1 7.1 0 0 0 0 6 4.7 4.7 0 0 0 4.4 2.4 5 5 0 0 0 2.6-.6c.8-.4 1.4-1.1 1.8-1.9a7.2 7.2 0 0 0 0-6zm-2 5c-.2.5-.5.9-1 1.2a2.7 2.7 0 0 1-2.8 0c-.5-.3-.8-.7-1-1.2a5.7 5.7 0 0 1 0-3.9c.2-.5.5-1 1-1.2a2.6 2.6 0 0 1 3.8 1.2c.5 1.2.5 2.6 0 3.9zM159.2 44.2V51h-.1l-4.7-6.8h-2V55h2.3v-6.8l4.8 6.8h2V44.2h-2.3zM167.1 53.1v-8.9h-2.3V55h7v-1.9H167zM174.8 44.2V55h2.2V44.2h-2.2zM187.2 44.2V51h-.1l-4.7-6.8h-2V55h2.3v-6.8h.1l4.7 6.8h2V44.2h-2.3zM195.1 53.1v-2.5h4.6v-2h-4.6v-2.5h5v-1.9h-7.3V55h7.3v-1.9h-5z" fill="#FCEE21"/></svg>